<svg width="21" height="14" viewBox="0 0 21 14" fill="none" xmlns="http://www.w3.org/2000/svg">
<path d="M12.7813 0.759976C12.6121 0.93204 12.5173 1.16368 12.5173 1.40498C12.5173 1.64627 12.6121 1.87791 12.7813 2.04998L17.0313 6.32998H0.931252C0.803057 6.31656 0.673473 6.33022 0.550898 6.37009C0.428324 6.40996 0.315494 6.47514 0.219724 6.56141C0.123954 6.64768 0.04738 6.75311 -0.00503436 6.87087C-0.0574487 6.98862 -0.0845337 7.11608 -0.0845337 7.24498C-0.0845337 7.37387 -0.0574487 7.50133 -0.00503436 7.61909C0.04738 7.73684 0.123954 7.84227 0.219724 7.92854C0.315494 8.01481 0.428324 8.07999 0.550898 8.11986C0.673473 8.15973 0.803057 8.1734 0.931252 8.15998H17.0313L12.7713 12.5C12.6044 12.6733 12.5112 12.9044 12.5112 13.145C12.5112 13.3855 12.6044 13.6167 12.7713 13.79C12.8539 13.8728 12.9521 13.9385 13.0602 13.9834C13.1683 14.0282 13.2842 14.0513 13.4013 14.0513C13.5183 14.0513 13.6342 14.0282 13.7423 13.9834C13.8504 13.9385 13.9486 13.8728 14.0313 13.79L19.7713 7.89998C19.8493 7.81376 19.9134 7.71592 19.9613 7.60998C20.0094 7.49967 20.0333 7.38031 20.0313 7.25998C20.0322 7.14143 20.0097 7.02387 19.9651 6.91404C19.9205 6.80421 19.8546 6.70427 19.7713 6.61998L14.0313 0.779976C13.8726 0.61765 13.658 0.522065 13.4312 0.512771C13.2044 0.503477 12.9826 0.581176 12.8113 0.729976L12.7813 0.759976Z" fill="black"/>
</svg>
